<svg xmlns="http://www.w3.org/2000/svg" xmlns:xlink="http://www.w3.org/1999/xlink" viewBox="0 0 19.83 29.99"><defs><style>.cls-1{isolation:isolate;}.cls-2{fill:url(#linear-gradient);}.cls-3{opacity:0.44;mix-blend-mode:multiply;fill:url(#linear-gradient-2);}.cls-4{fill:url(#linear-gradient-3);}</style><linearGradient id="linear-gradient" x1="3.15" y1="29.99" x2="3.15" y2="18.87" gradientUnits="userSpaceOnUse"><stop offset="0" stop-color="#ff1bc9"/><stop offset="0.53" stop-color="#873eed"/><stop offset="1" stop-color="#11318d"/></linearGradient><linearGradient id="linear-gradient-2" x1="-0.49" y1="21.79" x2="6.77" y2="21.79" gradientUnits="userSpaceOnUse"><stop offset="0"/><stop offset="1" stop-color="#fff"/></linearGradient><linearGradient id="linear-gradient-3" x1="9.92" y1="24.72" x2="9.92" y2="0" xlink:href="#linear-gradient"/></defs><title>prime</title><g class="cls-1"><g id="Layer_2" data-name="Layer 2"><g id="Layer_1-2" data-name="Layer 1"><path class="cls-2" d="M6.29,18.87H0V25.1A4.89,4.89,0,0,0,4.89,30h1.4Z"/><path class="cls-3" d="M6.29,18.87H0v5.85H0a4.89,4.89,0,0,1,5.94-3.54l.14,0,.21.05Z"/><path class="cls-4" d="M9.92,0h-5A4.89,4.89,0,0,0,0,4.89V24.72H0a4.89,4.89,0,0,1,4.89-4.89h5a9.91,9.91,0,0,0,9.91-9.91h0A9.92,9.92,0,0,0,9.92,0Zm0,13.54H6.29V6.29H9.92a3.63,3.63,0,0,1,0,7.25Z"/></g></g></g></svg>